<?xml version="1.0" standalone="no"?>
<!DOCTYPE svg PUBLIC "-//W3C//DTD SVG 20010904//EN"
 "http://www.w3.org/TR/2001/REC-SVG-20010904/DTD/svg10.dtd">
<svg version="1.0" xmlns="http://www.w3.org/2000/svg"
 width="820.000000pt" height="512.000000pt" viewBox="0 0 820.000000 512.000000"
 preserveAspectRatio="xMidYMid meet">

<g transform="translate(0.000000,512.000000) scale(0.100000,-0.100000)"
fill="#000000" stroke="none">
<path d="M5693 5104 c-66 -24 -113 -76 -251 -279 -70 -104 -152 -225 -181
-267 l-53 -78 -826 0 c-494 0 -871 -4 -936 -10 -360 -35 -673 -177 -911 -415
-190 -189 -295 -378 -351 -631 -21 -99 -30 -457 -14 -609 31 -304 161 -575
389 -808 77 -80 215 -189 306 -243 72 -43 219 -108 303 -135 40 -13 71 -28 68
-34 -2 -5 -47 -74 -101 -152 l-97 -143 -287 0 c-326 0 -356 -5 -422 -71 -51
-51 -70 -91 -76 -158 -10 -110 40 -203 136 -253 50 -26 61 -28 173 -28 92 0
119 -3 115 -12 -2 -7 -59 -92 -125 -188 -160 -234 -167 -248 -167 -335 1 -80
22 -130 77 -181 102 -96 257 -96 351 -1 23 24 145 194 271 380 l230 337 1255
0 c1242 0 1257 1 1301 21 95 43 150 129 150 234 0 105 -55 191 -150 234 -44
20 -60 21 -1122 21 -593 0 -1078 3 -1077 8 0 4 37 61 82 127 l82 120 1000 5
1000 5 47 23 c111 55 164 185 127 316 -15 55 -103 141 -160 157 -33 8 -253 12
-846 13 -442 0 -803 4 -803 8 0 4 234 351 521 770 286 420 573 840 637 935
l117 171 175 4 c196 4 235 14 298 79 50 50 65 86 70 164 7 112 -39 194 -134
241 -33 16 -51 31 -47 38 3 6 43 65 87 130 78 117 115 195 116 247 0 51 -30
126 -70 172 -68 77 -179 105 -277 71z m-846 -1151 c-7 -11 -914 -1340 -1117
-1637 l-163 -239 -74 7 c-41 3 -116 20 -166 37 -313 104 -552 351 -628 647
-28 110 -28 484 0 594 65 252 270 451 564 548 143 47 172 48 900 49 379 1 686
-2 684 -6z"/>
</g>
</svg>
